<svg width="256" height="256" xmlns="http://www.w3.org/2000/svg"><rect width="100%" height="100%" fill="#1D7193"/><path d="M124.05 42.184a85.083 82.917 0 0 1 61.56 23.718 90.466 88.162 0 0 1 22.65 90.8 87.33 85.107 0 0 1-15.32 27.122 84.468 82.317 0 0 1-7.158 7.534 83.437 81.312 0 0 1-54.99 22.435 84.61 82.456 0 0 1-56.679-18.835 91.132 91.132 0 0 1-4.71-4.032l-23.135 7.883a7.058 6.878 0 0 1-8.705-9.418l12.212-25.127a90.037 87.744 0 0 1-5.512-14.915 91.182 88.86 0 0 1-2.863-19.142A89.45 87.172 0 0 1 47.27 95.8a87.33 85.107 0 0 1 19.227-29.173 84.31 82.163 0 0 1 26.4-17.72 82.692 80.587 0 0 1 31.152-6.724Zm-2.334 50.436a11.138 10.855 0 0 1 .816-4.185 10.88 10.603 0 0 1 2.448-3.474 11.453 11.162 0 0 1 3.536-2.316 10.838 10.562 0 0 1 4.152-.782 10.709 10.436 0 0 1 4.137.782 11.124 10.84 0 0 1 3.494 2.357 10.88 10.603 0 0 1 2.405 3.488 11.281 10.994 0 0 1 .787 4.186 11.038 10.757 0 0 1-.787 4.088 11.196 10.91 0 0 1-2.391 3.502 10.866 10.59 0 0 1-3.508 2.4 10.408 10.143 0 0 1-4.137.795 10.737 10.464 0 0 1-4.295-.795 10.38 10.115 0 0 1-3.536-2.372 10.795 10.52 0 0 1-3.193-7.618zm4.18 63.119-.243.851c-.215.879-.516 2.107.186 2.874a1.303 1.27 0 0 0 .487.307 1.933 1.884 0 0 0 .744.126 3.708 3.614 0 0 0 1.961-.851 18.611 18.138 0 0 0 2.864-2.707 50.237 48.957 0 0 0 3.479-4.367q1.804-2.484 3.78-5.72a.515.502 0 0 1 .686-.168l4.439 3.223a.501.488 0 0 1 .128.656 77.696 75.717 0 0 1-6.199 9.069 42.606 41.521 0 0 1-6.413 6.473 24.868 24.235 0 0 1-6.658 3.865 19.313 18.821 0 0 1-7.029 1.298 19.07 18.584 0 0 1-5.526-.712 10.866 10.59 0 0 1-4.11-2.204 9.606 9.362 0 0 1-2.519-3.6 13.429 13.087 0 0 1-.801-4.772 26.2 25.532 0 0 1 1.03-6.39c.244-.893.544-1.883.902-2.985l7.817-23.523.644-2.219c.158-.614.301-1.158.401-1.618a11.783 11.482 0 0 0 .215-1.2 10.107 9.85 0 0 0 .071-1.018 3.708 3.614 0 0 0-.272-1.396 3.035 2.958 0 0 0-.773-1.06 3.436 3.348 0 0 0-1.274-.726 5.283 5.148 0 0 0-1.718-.25h-6.3a.501.488 0 0 1-.5-.489v-.167l1.646-5.958a.487.474 0 0 1 .473-.349l32.083-.99a.515.502 0 0 1 .515.474v.154l-14.23 46.041zm49.865-79.973a71.024 69.216 0 0 0-51.382-19.825 68.791 67.04 0 0 0-25.77 5.58A69.98 68.197 0 0 0 76.547 76.27a73.33 71.462 0 0 0-16.135 24.43 75.706 73.778 0 0 0-4.91 29.033 76.937 74.978 0 0 0 2.405 16.17 75.477 73.555 0 0 0 5.727 14.832 7.058 6.878 0 0 1 .3 6.446l-6.428 13.24 11.167-3.795a7.044 6.864 0 0 1 7.674 1.66 73.2 71.336 0 0 0 6.7 6.07 70.652 68.853 0 0 0 47.244 15.737 69.335 67.57 0 0 0 45.627-18.695 71.31 69.495 0 0 0 6.013-6.293 73.787 71.908 0 0 0 12.885-22.741 76.422 74.476 0 0 0-19.055-76.597z" fill="#fff"/></svg>